<svg xmlns="http://www.w3.org/2000/svg" xmlns:xlink="http://www.w3.org/1999/xlink" version="1.1" x="0px" y="0px" viewBox="0 0 100 100" enable-background="new 0 0 100 100" xml:space="preserve"><path d="M34.612,24.216h7.317v10.396c0,1.058,0.857,1.915,1.915,1.915h12.311c1.059,0,1.916-0.857,1.916-1.915V24.216h7.316  c0.773,0,1.473-0.466,1.77-1.182c0.297-0.716,0.133-1.539-0.415-2.087L51.354,5.561c-0.748-0.747-1.958-0.747-2.707,0L33.259,20.947  c-0.548,0.548-0.712,1.371-0.415,2.087C33.14,23.75,33.839,24.216,34.612,24.216z"/><path d="M65.389,75.782H58.07V65.387c0-1.058-0.857-1.914-1.916-1.914H43.845c-1.058,0-1.915,0.856-1.915,1.914v10.396h-7.317  c-0.773,0-1.473,0.466-1.769,1.182c-0.297,0.717-0.133,1.539,0.415,2.087l15.388,15.39C49.005,94.798,49.492,95,50,95  s0.995-0.202,1.354-0.561l15.389-15.39c0.548-0.548,0.712-1.37,0.415-2.087C66.859,76.248,66.161,75.782,65.389,75.782z"/><path d="M94.439,48.646L79.052,33.258c-0.548-0.548-1.37-0.711-2.087-0.415c-0.716,0.296-1.182,0.995-1.182,1.769v7.317H65.389  c-1.059,0-1.916,0.857-1.916,1.915v12.311c0,1.059,0.857,1.916,1.916,1.916h10.396v7.316c0,0.774,0.466,1.473,1.182,1.77  c0.237,0.099,0.486,0.146,0.732,0.146c0.497,0,0.987-0.194,1.354-0.562l15.388-15.387C94.798,50.995,95,50.508,95,50  S94.798,49.005,94.439,48.646z"/><path d="M36.527,56.154V43.844c0-1.058-0.857-1.915-1.915-1.915H24.217v-7.317c0-0.773-0.466-1.473-1.182-1.769  c-0.717-0.296-1.539-0.133-2.087,0.415L5.561,48.646C5.202,49.005,5,49.492,5,50s0.202,0.995,0.561,1.354L20.948,66.74  c0.366,0.365,0.855,0.562,1.354,0.562c0.246,0,0.495-0.048,0.732-0.146c0.716-0.297,1.182-0.994,1.182-1.77V58.07h10.396  C35.67,58.068,36.527,57.212,36.527,56.154z"/></svg>